<svg width="16" height="16" viewBox="0 0 16 16" fill="none" xmlns="http://www.w3.org/2000/svg">
<path fill-rule="evenodd" clip-rule="evenodd" d="M13.7966 12.6508C13.5877 12.4815 13.3744 12.3161 13.179 12.1324C12.9615 11.9279 12.8248 11.6805 12.8546 11.3673C12.8717 11.1871 12.8294 11.0321 12.6087 10.9718C12.6606 10.8396 12.7092 10.7509 12.7289 10.6564C12.7508 10.551 12.7496 10.4402 12.7526 10.3317C12.7834 9.19066 12.3648 8.19038 11.7448 7.25735C11.4593 6.82796 11.1611 6.40624 10.8567 5.98956C10.3807 5.33791 10.21 4.60583 10.2014 3.81498C10.1965 3.44991 10.1543 3.08624 10.0756 2.72947C9.92285 2.03749 9.54636 1.49639 8.86355 1.20619C8.34036 0.983707 7.79878 0.939599 7.24628 1.082C6.4434 1.2888 5.9579 1.87641 5.96698 2.69601C5.97558 3.4848 6.01549 4.27462 6.07424 5.06158C6.10775 5.50758 6.03794 5.89241 5.73743 6.24619C5.44844 6.58634 5.18992 6.95329 4.93956 7.32277C4.79657 7.53403 4.66999 7.76419 4.58157 8.00226C4.34074 8.65105 4.11934 9.30522 3.73506 9.8926C3.59266 10.1103 3.57649 10.3538 3.67759 10.6028C3.70377 10.6673 3.71982 10.7665 3.68795 10.8184C3.41408 11.266 3.10495 11.6599 2.51684 11.7458C2.05427 11.8135 2.03146 11.8964 2.04554 12.366C2.05718 12.7483 2.05264 13.1341 2.01297 13.514C1.97073 13.9213 2.0139 14.032 2.41342 14.1296C3.33531 14.3551 4.26477 14.5474 5.14653 14.9148C5.52197 15.0712 5.89868 15.0169 6.20106 14.7129C6.51669 14.3954 6.91551 14.2712 7.34633 14.2708C8.07754 14.2702 8.80898 14.3049 9.54054 14.313C9.73856 14.3153 9.85223 14.3878 9.93192 14.565C10.0296 14.7818 10.1949 14.9412 10.4491 14.9689C10.9369 15.0218 11.3813 14.9506 11.7509 14.5841C12.2068 14.1318 12.7324 13.7746 13.3349 13.527C13.5074 13.4561 13.6698 13.3446 13.8123 13.2236C14.0718 13.0034 14.0581 12.8632 13.7966 12.6508ZM7.81693 3.43107C7.90512 3.13308 8.11209 2.9397 8.42692 2.88104C8.69171 2.83177 8.9159 2.95986 9.08297 3.25292C9.26284 3.56889 9.32194 3.89907 9.16837 4.24483C9.04237 4.52827 8.98327 4.55496 8.68869 4.45884C8.63354 4.44086 8.57967 4.41955 8.48195 4.38415C8.56432 4.31609 8.61621 4.26557 8.67554 4.22582C8.80747 4.13737 8.84447 4.01295 8.83214 3.86516C8.81597 3.67109 8.661 3.49924 8.50207 3.50141C8.35956 3.50336 8.23891 3.63511 8.22285 3.83537C8.21285 3.96014 8.2339 4.08731 8.24298 4.24655C7.84206 4.12935 7.69489 3.84271 7.81693 3.43107ZM6.33357 3.17318C6.48179 2.9523 6.70552 2.90808 6.92703 3.05587C7.16309 3.21351 7.3397 3.65803 7.24849 3.92382C7.21533 4.02051 7.11737 4.09567 7.04884 4.18056L6.97857 4.13771C6.95181 3.99416 6.94646 3.84156 6.8905 3.71004C6.85513 3.62664 6.74426 3.57439 6.66724 3.50817C6.59487 3.59284 6.47027 3.67349 6.46283 3.76343C6.45259 3.88762 6.51832 4.02464 6.57556 4.14505C6.61174 4.22078 6.69202 4.27623 6.77486 4.36456L6.55125 4.53755C6.20013 4.22822 6.09577 3.52708 6.33357 3.17318ZM10.7155 10.529C10.6919 10.8273 10.6573 10.8398 10.3527 10.8839C10.1365 10.9151 10.0783 10.9706 10.0673 11.2235C10.0554 11.5195 10.055 11.8158 10.0659 12.1118C10.073 12.3145 10.0035 12.4736 9.86177 12.615C9.07483 13.4005 8.13467 13.7727 7.00998 13.6377C6.52484 13.5793 6.20769 13.2886 5.95162 12.8771C6.06563 12.8355 6.14998 12.8075 6.23224 12.7746C6.59546 12.6291 6.6634 12.3215 6.37336 12.0555C6.15417 11.8542 5.90962 11.6794 5.67449 11.495C5.44716 11.3169 5.2168 11.1424 4.98912 10.9647C4.79506 10.8131 4.72095 10.6178 4.7163 10.3703C4.70536 9.77666 4.82938 9.22125 5.08138 8.68084C5.30615 8.19863 5.48032 7.69362 5.69089 7.20465C5.79967 6.95238 5.91264 6.69426 6.07227 6.4728C6.22572 6.2604 6.32054 6.05246 6.30355 5.79228C6.29378 5.64609 6.30169 5.49876 6.30169 5.352L6.38395 5.31167C6.51669 5.42452 6.65177 5.53496 6.78219 5.65068C7.25279 6.06838 7.70036 6.08752 8.21541 5.72744C8.43506 5.5738 8.67263 5.44446 8.90497 5.30904C8.96279 5.27536 9.03201 5.26058 9.12997 5.22449C9.38023 5.80488 9.62582 6.37393 9.87166 6.94298C9.99637 7.23215 10.0964 7.53495 10.2514 7.80761C10.5621 8.35467 10.7275 8.93185 10.7249 9.55727C10.7235 9.88149 10.7408 10.2069 10.7155 10.529Z" fill="#BDBDBD"/>
</svg>
