<svg width="16" height="16" viewBox="0 0 16 16" fill="none" xmlns="http://www.w3.org/2000/svg">
<path fill-rule="evenodd" clip-rule="evenodd" d="M8 0C3.58172 0 0 3.58172 0 8C0 12.4183 3.58172 16 8 16C12.4183 16 16 12.4183 16 8C16 3.58172 12.4183 0 8 0ZM1.55203 8C1.55203 4.43888 4.43888 1.55203 8 1.55203C11.5611 1.55203 14.448 4.43888 14.448 8C14.448 11.5611 11.5611 14.448 8 14.448C4.43888 14.448 1.55203 11.5611 1.55203 8Z" fill="#00C950"/>
<path d="M11.2426 5.38121C11.5522 5.6564 11.5801 6.13045 11.3049 6.44004L7.64578 10.5565C7.50855 10.7109 7.31372 10.8019 7.10725 10.8079C6.90078 10.814 6.70095 10.7346 6.55489 10.5886L4.72535 8.75903C4.43245 8.46613 4.43245 7.99126 4.72535 7.69837C5.01824 7.40547 5.49311 7.40547 5.78601 7.69837L7.05311 8.96547L10.1838 5.44349C10.4589 5.13391 10.933 5.10602 11.2426 5.38121Z" fill="#00C950"/>
</svg>
