<svg width="16" height="16" viewBox="0 0 16 16" fill="none" xmlns="http://www.w3.org/2000/svg">
<path fill-rule="evenodd" clip-rule="evenodd" d="M8 0C3.58172 0 0 3.58172 0 8C0 12.4183 3.58172 16 8 16C12.4183 16 16 12.4183 16 8C16 3.58172 12.4183 0 8 0ZM1.55203 8C1.55203 4.43888 4.43888 1.55203 8 1.55203C11.5611 1.55203 14.448 4.43888 14.448 8C14.448 11.5611 11.5611 14.448 8 14.448C4.43888 14.448 1.55203 11.5611 1.55203 8Z" fill="#FB2C36"/>
<path fill-rule="evenodd" clip-rule="evenodd" d="M5.17133 5.17157C5.46422 4.87868 5.9391 4.87868 6.23199 5.17157L7.99976 6.93934L9.76752 5.17157C10.0604 4.87868 10.5353 4.87868 10.8282 5.17157C11.1211 5.46447 11.1211 5.93934 10.8282 6.23223L9.06042 8L10.8282 9.76777C11.1211 10.0607 11.1211 10.5355 10.8282 10.8284C10.5353 11.1213 10.0604 11.1213 9.76752 10.8284L7.99976 9.06066L6.23199 10.8284C5.9391 11.1213 5.46422 11.1213 5.17133 10.8284C4.87844 10.5355 4.87844 10.0607 5.17133 9.76777L6.9391 8L5.17133 6.23223C4.87844 5.93934 4.87844 5.46447 5.17133 5.17157Z" fill="#FB2C36"/>
</svg>
