<svg width="17" height="18" viewBox="0 0 17 18" fill="none" xmlns="http://www.w3.org/2000/svg">
<g clip-path="url(#clip0_205_65)">
<path d="M14 1V2H13V3H12V4H11V6H13V7H12V8H11V9H10V10H9V11H8V12H7V13H6V14H5V15H4V17V18H5V17H6V16H7V15H8V14H9V13H10V12H11V11H12V10H13V9H14V8H15V7H16V6H14V4H15V3H16V2H17V1H14ZM23 1V13H25V5H37V1H23ZM51 1V3H41V7H43V5H51V9H39V17H43V11H51V17H55V1H51ZM69 1V3H57V17H61V5H63V17H67V5H69V17H73V1H69ZM77 1V13H75V17H91V13H79V11H91V7H79V5H91V1H77ZM110 1V15H96V17H112V1H110ZM128 1V15H114V17H130V1H128ZM138 1V9H140V1H138ZM162 1V7H158V15H152V17H160V9H164V1H162ZM35 7V15H21V17H37V7H35ZM148 7V9H152V7H148ZM1 9V11H7V9H1ZM27 9V11H33V9H27ZM144 9V15H132V17H146V9H144Z" fill="black"/>
<path d="M4 0V2H3V4H2V6H1V8H0V10H6V12H5V14H4V16H5V15H6V14H7V13H8V12H9V11H10V10H11V9H12V8H13V7H14V6H15V5H12V4H13V3H14V2H15V1H16V0H4ZM4 16H3V17H4V16ZM20 0V16H36V6H26V10H32V12H24V4H36V0H20ZM38 0V16H42V10H50V16H54V0H38ZM56 0V16H60V4H62V16H66V4H68V16H72V0H56ZM74 0V16H90V12H78V10H90V6H78V4H90V0H74ZM103 0V8H95V16H111V0H103ZM113 0V16H129V0H113ZM131 0V16H145V8H139V0H131ZM147 0V8H151V16H159V8H163V0H147ZM42 4H50V6H42V4Z" fill="#1C398E"/>
<path d="M5 2V4H4V6H5V7H6V6H7V7H8V6H9V5H10V4H11V3H12V2H5ZM8 7V8H9V7H8ZM7 7H6V8H7V7ZM5 7H4V8H5V7ZM4 7V6H3V7H4ZM105 2V10H97V14H98V11H106V9H107V8H106V7H107V8H108V7H109V2H105ZM108 8V9H109V8H108ZM115 2V14H116V9H117V8H116V7H117V8H118V7H119V6H123V10H120V11H124V9H125V8H124V7H125V8H126V7H127V2H115ZM126 8V9H127V8H126ZM118 8V9H119V8H118ZM133 2V14H134V9H135V8H134V7H135V8H136V7H137V2H133ZM136 8V9H137V8H136ZM149 2V6H153V14H154V9H155V8H154V7H155V8H156V7H157V6H161V2H149ZM156 8V9H157V8H156ZM10 7V8H11V7H10ZM138 10V11H143V10H138Z" fill="white"/>
<path d="M4 6V7H5V6H4ZM5 7V8H6V7H5ZM6 7H7V6H6V7ZM7 7V8H8V7H7ZM8 7H9V6H8V7ZM9 7V8H8V10H9V9H10V7H9ZM4 7H3V8H4V7ZM106 7V8H107V7H106ZM107 8V9H106V11H98V14H109V9H108V8H107ZM108 8H109V7H108V8ZM116 7V8H117V7H116ZM117 8V9H116V14H127V9H126V8H125V9H124V11H120V10H119V9H118V8H117ZM118 8H119V7H118V8ZM125 8V7H124V8H125ZM126 8H127V7H126V8ZM134 7V8H135V7H134ZM135 8V9H134V14H143V11H138V10H137V9H136V8H135ZM136 8H137V7H136V8ZM154 7V8H155V7H154ZM155 8V9H154V14H157V9H156V8H155ZM156 8H157V7H156V8Z" fill="white"/>
</g>
<defs>
<clipPath id="clip0_205_65">
<rect width="17" height="18" fill="white"/>
</clipPath>
</defs>
</svg>
