<svg width="222" height="199" viewBox="0 0 222 199" fill="none" xmlns="http://www.w3.org/2000/svg">
<path d="M28.828 1.23006C19.184 6.95606 0.182 28.7871 0 34.5121V43.9901C0 56.0041 11.23 66.5621 21.424 66.5621C33.664 66.5621 43.864 56.4161 43.866 44.3751C43.866 56.4151 53.716 66.5621 65.959 66.5621C78.201 66.5621 87.735 56.4161 87.735 44.3751C87.735 56.4151 98.205 66.5621 110.445 66.5621H110.665C122.905 66.5621 133.385 56.4161 133.385 44.3751C133.385 56.4151 142.915 66.5621 155.155 66.5621C167.395 66.5621 177.245 56.4161 177.245 44.3751C177.245 56.4151 187.445 66.5621 199.685 66.5621C209.875 66.5621 221.105 56.0051 221.105 43.9901V34.5121C220.915 28.7871 201.915 6.95606 192.275 1.23006C162.305 0.177064 141.515 -0.00393598 110.545 6.4022e-05C79.586 0.00206402 37.356 0.485064 28.826 1.23006H28.828ZM87.581 60.9041C86.4102 62.9443 84.9602 64.811 83.273 66.4501C78.4837 71.1474 72.0413 73.776 65.333 73.7701C58.348 73.7701 51.977 70.9701 47.357 66.4481C45.687 64.8081 44.417 63.0541 43.247 61.0121V61.0161C42.087 63.0621 40.457 64.8141 38.787 66.4561C33.9853 71.1526 27.5337 73.7796 20.817 73.7731C19.977 73.7731 19.107 73.5431 18.397 73.3031C17.417 83.5531 16.997 93.3431 16.853 100.493V100.533C16.833 104.163 16.818 107.143 16.799 111.283C16.989 132.793 14.669 180.983 26.279 192.823C44.269 197.023 77.373 198.933 110.589 198.943H110.592C143.806 198.933 176.912 197.023 194.902 192.833C206.512 180.991 204.192 132.801 204.382 111.298C204.365 107.158 204.348 104.176 204.329 100.548V100.508C204.179 93.3661 203.764 83.5731 202.779 73.3251C202.069 73.5651 201.192 73.7981 200.349 73.7981C193.631 73.8044 187.178 71.178 182.374 66.4821C180.699 64.8371 179.074 63.0851 177.911 61.0421L177.906 61.0351C176.739 63.0751 175.468 64.8321 173.793 66.4711C169.173 70.9911 162.803 73.7911 155.82 73.7911C148.837 73.7911 142.5 70.9911 137.88 66.4711C136.194 64.8307 134.743 62.9642 133.57 60.9251C132.413 62.9632 130.977 64.8299 129.304 66.4711C124.5 71.1703 118.044 73.7984 111.324 73.7911C111.08 73.7911 110.834 73.7811 110.594 73.7711H110.586C110.343 73.7811 110.1 73.7911 109.856 73.7911C102.87 73.7911 96.499 70.9911 91.878 66.4711C90.2034 64.831 88.7661 62.9649 87.608 60.9271L87.581 60.9041ZM69.119 84.7771L69.117 84.7851H69.137C76.447 84.8011 82.947 84.7851 90.987 93.5681C97.327 92.9051 103.937 92.5721 110.567 92.5831H110.577C117.207 92.5731 123.817 92.9131 130.157 93.5731C138.207 84.7931 144.697 84.8131 152.007 84.7931H152.027V84.7831C155.487 84.7831 169.297 84.7831 178.927 111.823L189.275 148.923C196.94 176.523 186.822 177.203 174.202 177.223C155.482 176.533 145.122 162.933 145.122 149.343C134.762 151.043 122.672 151.893 110.587 151.893H110.582C98.496 151.893 86.41 151.043 76.052 149.343C76.052 162.933 65.692 176.523 46.974 177.223C34.354 177.203 24.234 176.523 31.901 148.933L42.241 111.833C51.871 84.7931 65.691 84.7931 69.141 84.7931L69.119 84.7771ZM110.559 106.027V106.034C110.542 106.051 90.857 124.13 87.319 130.56L100.209 130.044V141.284C100.209 141.811 105.383 141.597 110.559 141.358H110.566C115.743 141.598 120.916 141.811 120.916 141.285V130.045L133.806 130.559C130.268 124.129 110.566 106.034 110.566 106.034V106.028L110.564 106.03L110.559 106.027Z" fill="#1C398E"/>
</svg>
