<svg width="224" height="112" viewBox="0 0 224 112" fill="none" xmlns="http://www.w3.org/2000/svg">
<rect width="224" height="112" fill="#1C398E"/>
<path d="M72 39.6666V66.3332C72 74.3332 68 79.6666 58.6667 79.6666H37.3333C28 79.6666 24 74.3332 24 66.3332V39.6666C24 31.6666 28 26.3333 37.3333 26.3333H58.6667C68 26.3333 72 31.6666 72 39.6666Z" stroke="white" stroke-width="3" stroke-miterlimit="10" stroke-linecap="round" stroke-linejoin="round"/>
<path d="M43.4667 61.7476L37.3333 67.8809" stroke="white" stroke-width="2" stroke-miterlimit="10" stroke-linecap="round" stroke-linejoin="round"/>
<path d="M37.4141 61.8269L43.5475 67.96" stroke="white" stroke-width="2" stroke-miterlimit="10" stroke-linecap="round" stroke-linejoin="round"/>
<path d="M59.9739 61.8804H60.0266M54.6405 67.6658V67.6133" stroke="white" stroke-width="4" stroke-miterlimit="10" stroke-linecap="round" stroke-linejoin="round"/>
<path d="M57 41.0525V41" stroke="white" stroke-width="2.5" stroke-miterlimit="10" stroke-linecap="round" stroke-linejoin="round"/>
<path d="M40 41.0525V41" stroke="white" stroke-width="4" stroke-miterlimit="10" stroke-linecap="round" stroke-linejoin="round"/>
<path d="M37.554 51.7886C43.2606 46.7205 51.5447 44.7523 58.235 48.142" stroke="white" stroke-width="2" stroke-linecap="round"/>
<path d="M196.895 63.0399C196.895 62.7039 196.895 62.3439 196.895 61.9599C196.895 61.5759 196.895 61.1919 196.895 60.8079C196.895 60.4239 196.895 60.0639 196.895 59.7279C196.895 58.4479 196.895 57.0479 196.895 55.5279C196.895 54.0079 196.895 52.2959 196.895 50.3919C196.895 49.9599 196.895 49.4559 196.895 48.8799C196.895 48.3039 196.895 47.7839 196.895 47.3199C196.895 46.9199 196.999 46.6159 197.207 46.4079C197.431 46.1999 197.687 46.0959 197.975 46.0959C198.263 46.0959 198.511 46.1999 198.719 46.4079C198.943 46.6159 199.055 46.9199 199.055 47.3199C199.055 47.7039 199.055 48.0639 199.055 48.3999C199.055 48.7199 199.055 49.0479 199.055 49.3839C199.055 49.7039 199.055 50.0399 199.055 50.3919C199.055 51.2399 199.055 52.1439 199.055 53.1039C199.055 54.0639 199.055 55.0959 199.055 56.1999C199.055 57.2879 199.055 58.4639 199.055 59.7279C199.055 60.1279 199.055 60.5039 199.055 60.8559C199.055 61.2079 199.055 61.5599 199.055 61.9119C199.055 62.2639 199.055 62.6399 199.055 63.0399C199.055 63.4399 198.943 63.7439 198.719 63.9519C198.511 64.1599 198.263 64.2639 197.975 64.2639C197.687 64.2639 197.431 64.1599 197.207 63.9519C196.999 63.7439 196.895 63.4399 196.895 63.0399Z" fill="white"/>
<path d="M191.34 63.0401C191.34 62.7041 191.34 62.3601 191.34 62.0081C191.34 61.6561 191.34 61.3201 191.34 61.0001C191.34 60.6641 191.34 60.3441 191.34 60.0401C191.34 59.4961 191.34 59.0241 191.34 58.6241C191.34 58.2241 191.34 57.8241 191.34 57.4241C191.34 57.0241 191.34 56.5521 191.34 56.0081C191.34 55.7041 191.34 55.4001 191.34 55.0961C191.34 54.7921 191.34 54.4721 191.34 54.1361C191.34 53.7841 191.34 53.4081 191.34 53.0081C191.34 52.6081 191.444 52.3121 191.652 52.1201C191.876 51.9121 192.132 51.8081 192.42 51.8081C192.708 51.8081 192.956 51.9121 193.164 52.1201C193.388 52.3121 193.5 52.6081 193.5 53.0081C193.5 53.4241 193.5 53.7921 193.5 54.1121C193.5 54.4161 193.5 54.7201 193.5 55.0241C193.5 55.3121 193.5 55.6401 193.5 56.0081C193.5 56.3761 193.5 56.8081 193.5 57.3041C193.5 57.7841 193.5 58.2721 193.5 58.7681C193.5 59.2481 193.5 59.6721 193.5 60.0401C193.5 60.4081 193.5 60.7521 193.5 61.0721C193.5 61.3921 193.5 61.7121 193.5 62.0321C193.5 62.3361 193.5 62.6721 193.5 63.0401C193.5 63.4401 193.388 63.7441 193.164 63.9521C192.956 64.1601 192.708 64.2641 192.42 64.2641C192.132 64.2641 191.876 64.1681 191.652 63.9761C191.444 63.7681 191.34 63.4561 191.34 63.0401ZM191.34 48.7361C191.34 48.5601 191.34 48.4161 191.34 48.3041C191.34 48.1921 191.34 48.0801 191.34 47.9681C191.34 47.8561 191.34 47.7201 191.34 47.5601C191.34 47.1921 191.444 46.9201 191.652 46.7441C191.876 46.5521 192.132 46.4561 192.42 46.4561C192.708 46.4561 192.956 46.5521 193.164 46.7441C193.388 46.9201 193.5 47.1921 193.5 47.5601C193.5 47.7201 193.5 47.8561 193.5 47.9681C193.5 48.0801 193.5 48.1921 193.5 48.3041C193.5 48.4161 193.5 48.5601 193.5 48.7361C193.5 49.1041 193.388 49.3841 193.164 49.5761C192.956 49.7521 192.708 49.8401 192.42 49.8401C192.132 49.8401 191.876 49.7521 191.652 49.5761C191.444 49.3841 191.34 49.1041 191.34 48.7361Z" fill="white"/>
<path d="M188.101 53.1521C188.101 53.5681 188.101 53.9521 188.101 54.3041C188.101 54.6561 188.101 55.0321 188.101 55.4321C188.101 55.8161 188.101 56.2641 188.101 56.7761C188.101 57.2721 188.101 57.8641 188.101 58.5521C188.101 59.4641 187.957 60.2721 187.669 60.9761C187.381 61.6801 186.973 62.2801 186.445 62.7761C185.933 63.2561 185.325 63.6241 184.621 63.8801C183.933 64.1361 183.181 64.2641 182.365 64.2641C181.549 64.2641 180.789 64.1121 180.085 63.8081C179.381 63.5041 178.765 63.0721 178.237 62.5121C177.709 61.9521 177.301 61.2961 177.013 60.5441C176.725 59.7761 176.581 58.9361 176.581 58.0241C176.581 56.8081 176.829 55.7361 177.325 54.8081C177.837 53.8641 178.525 53.1281 179.389 52.6001C180.269 52.0721 181.253 51.8081 182.341 51.8081C183.157 51.8081 183.909 51.9601 184.597 52.2641C185.301 52.5521 185.909 52.9761 186.421 53.5361C186.949 54.0801 187.357 54.7281 187.645 55.4801C187.949 56.2321 188.101 57.0641 188.101 57.9761C188.101 58.3441 188.101 58.7041 188.101 59.0561C188.101 59.3921 188.101 59.7201 188.101 60.0401C188.101 60.3441 188.101 60.6321 188.101 60.9041C188.101 61.3361 188.101 61.7361 188.101 62.1041C188.101 62.4721 188.101 62.8721 188.101 63.3041C188.101 63.7041 187.989 64.0081 187.765 64.2161C187.557 64.4241 187.309 64.5281 187.021 64.5281C186.733 64.5281 186.477 64.4241 186.253 64.2161C186.045 64.0081 185.941 63.7041 185.941 63.3041C185.941 63.0481 185.941 62.7841 185.941 62.5121C185.941 62.2401 185.941 61.9761 185.941 61.7201C185.941 61.4481 185.941 61.1761 185.941 60.9041C185.941 60.7281 185.941 60.4561 185.941 60.0881C185.941 59.7041 185.941 59.3201 185.941 58.9361C185.941 58.5361 185.941 58.2161 185.941 57.9761C185.941 57.1921 185.789 56.4961 185.485 55.8881C185.181 55.2801 184.757 54.8081 184.213 54.4721C183.669 54.1361 183.045 53.9681 182.341 53.9681C181.813 53.9681 181.325 54.0721 180.877 54.2801C180.429 54.4721 180.045 54.7521 179.725 55.1201C179.421 55.4721 179.181 55.8961 179.005 56.3921C178.829 56.8881 178.741 57.4321 178.741 58.0241C178.741 58.6161 178.829 59.1601 179.005 59.6561C179.181 60.1521 179.429 60.5841 179.749 60.9521C180.069 61.3201 180.453 61.6081 180.901 61.8161C181.349 62.0081 181.837 62.1041 182.365 62.1041C182.893 62.1041 183.373 62.0321 183.805 61.8881C184.253 61.7441 184.637 61.5281 184.957 61.2401C185.277 60.9361 185.517 60.5601 185.677 60.1121C185.853 59.6641 185.941 59.1441 185.941 58.5521C185.941 58.0881 185.941 57.6001 185.941 57.0881C185.941 56.5761 185.941 56.0721 185.941 55.5761C185.941 55.0801 185.941 54.6241 185.941 54.2081C185.941 53.7761 185.941 53.4241 185.941 53.1521C185.941 52.7521 186.045 52.4481 186.253 52.2401C186.477 52.0321 186.733 51.9281 187.021 51.9281C187.309 51.9281 187.557 52.0321 187.765 52.2401C187.989 52.4481 188.101 52.7521 188.101 53.1521Z" fill="white"/>
<path d="M172.108 63.0399C172.108 62.7039 172.108 62.3519 172.108 61.9839C172.108 61.5999 172.108 61.2239 172.108 60.8559C172.108 60.4719 172.108 60.1199 172.108 59.7999C172.108 59.4159 172.108 58.9919 172.108 58.5279C172.108 58.0479 172.108 57.5279 172.108 56.9679C172.108 56.2959 171.996 55.7439 171.772 55.3119C171.564 54.8639 171.252 54.5279 170.836 54.3039C170.42 54.0799 169.908 53.9679 169.3 53.9679C168.772 53.9679 168.292 54.0559 167.86 54.2319C167.428 54.3919 167.052 54.6319 166.732 54.9519C166.428 55.2719 166.188 55.6719 166.012 56.1519C165.836 56.6319 165.748 57.1839 165.748 57.8079C165.748 58.0799 165.748 58.4399 165.748 58.8879C165.748 59.3199 165.748 59.7839 165.748 60.2799C165.748 60.7759 165.748 61.2719 165.748 61.7679C165.748 62.2479 165.748 62.6719 165.748 63.0399C165.748 63.3599 165.676 63.6239 165.532 63.8319C165.388 64.0239 165.204 64.1519 164.98 64.2159C164.772 64.2799 164.556 64.2799 164.332 64.2159C164.124 64.1519 163.948 64.0239 163.804 63.8319C163.66 63.6239 163.588 63.3599 163.588 63.0399C163.588 62.7359 163.588 62.3279 163.588 61.8159C163.588 61.2879 163.588 60.7199 163.588 60.1119C163.588 59.4879 163.588 58.8879 163.588 58.3119C163.588 57.7199 163.588 57.2079 163.588 56.7759C163.588 56.3439 163.588 56.0479 163.588 55.8879C163.588 55.5679 163.588 55.2479 163.588 54.9279C163.588 54.6079 163.588 54.2879 163.588 53.9679C163.588 53.6479 163.588 53.3279 163.588 53.0079C163.588 52.6079 163.692 52.3039 163.9 52.0959C164.124 51.8879 164.38 51.7839 164.668 51.7839C164.956 51.7839 165.204 51.8879 165.412 52.0959C165.636 52.3039 165.748 52.6079 165.748 53.0079C165.748 53.3599 165.748 53.6879 165.748 53.9919C165.748 54.2959 165.748 54.5999 165.748 54.9039C165.748 55.2079 165.748 55.5359 165.748 55.8879C165.748 55.9839 165.748 56.2479 165.748 56.6799C165.748 57.0959 165.748 57.6079 165.748 58.2159C165.748 58.8079 165.748 59.4239 165.748 60.0639C165.748 60.6879 165.748 61.2719 165.748 61.8159C165.748 62.3439 165.748 62.7519 165.748 63.0399C165.748 63.3599 165.676 63.6239 165.532 63.8319C165.388 64.0239 165.204 64.1519 164.98 64.2159C164.772 64.2799 164.556 64.2799 164.332 64.2159C164.124 64.1519 163.948 64.0239 163.804 63.8319C163.66 63.6239 163.588 63.3599 163.588 63.0399C163.588 62.6719 163.588 62.2879 163.588 61.8879C163.588 61.4719 163.588 61.0479 163.588 60.6159C163.588 60.1839 163.588 59.7519 163.588 59.3199C163.588 58.8719 163.588 58.4479 163.588 58.0479C163.588 57.2319 163.732 56.4479 164.02 55.6959C164.324 54.9439 164.74 54.2799 165.268 53.7039C165.796 53.1119 166.42 52.6479 167.14 52.3119C167.86 51.9759 168.636 51.8079 169.468 51.8079C170.156 51.8079 170.788 51.9199 171.364 52.1439C171.956 52.3679 172.468 52.7039 172.9 53.1519C173.332 53.5839 173.668 54.1199 173.908 54.7599C174.148 55.3999 174.268 56.1359 174.268 56.9679C174.268 57.3359 174.268 57.7599 174.268 58.2399C174.268 58.7039 174.268 59.2239 174.268 59.7999C174.268 60.1999 174.268 60.5759 174.268 60.9279C174.268 61.2639 174.268 61.5999 174.268 61.9359C174.268 62.2719 174.268 62.6399 174.268 63.0399C174.268 63.4399 174.156 63.7439 173.932 63.9519C173.724 64.1599 173.476 64.2639 173.188 64.2639C172.9 64.2639 172.644 64.1599 172.42 63.9519C172.212 63.7439 172.108 63.4399 172.108 63.0399Z" fill="white"/>
<path d="M149.572 62.9441C149.572 62.5921 149.572 62.1921 149.572 61.7441C149.572 61.2801 149.572 60.7441 149.572 60.1361C149.572 59.5281 149.572 58.8161 149.572 58.0001C149.572 56.7841 149.82 55.7121 150.316 54.7841C150.812 53.8561 151.492 53.1281 152.356 52.6001C153.22 52.0721 154.204 51.8081 155.308 51.8081C156.396 51.8081 157.372 52.0801 158.236 52.6241C159.116 53.1521 159.812 53.8881 160.324 54.8321C160.836 55.7601 161.092 56.8321 161.092 58.0481C161.092 58.9601 160.94 59.8001 160.636 60.5681C160.348 61.3201 159.94 61.9761 159.412 62.5361C158.884 63.0801 158.268 63.5041 157.564 63.8081C156.876 64.1121 156.132 64.2641 155.332 64.2641C154.484 64.2641 153.708 64.1121 153.004 63.8081C152.3 63.5041 151.692 63.1041 151.18 62.6081C150.668 62.1121 150.268 61.5761 149.98 61.0001C149.708 60.4081 149.572 59.8321 149.572 59.2721C149.572 58.0241 149.572 57.0081 149.572 56.2241C149.572 55.4401 149.572 54.7761 149.572 54.2321C149.572 53.6721 149.572 53.1441 149.572 52.6481C149.572 52.1521 149.572 51.5761 149.572 50.9201C149.572 50.4081 149.572 49.9681 149.572 49.6001C149.572 49.2161 149.572 48.8481 149.572 48.4961C149.572 48.1441 149.572 47.7521 149.572 47.3201C149.572 46.9201 149.676 46.6241 149.884 46.4321C150.108 46.2241 150.364 46.1201 150.652 46.1201C150.94 46.1201 151.188 46.2241 151.396 46.4321C151.62 46.6241 151.732 46.9201 151.732 47.3201C151.732 47.7841 151.732 48.1761 151.732 48.4961C151.732 48.8001 151.732 49.1201 151.732 49.4561C151.732 49.7921 151.732 50.2321 151.732 50.7761C151.732 51.4641 151.732 52.0641 151.732 52.5761C151.732 53.0721 151.732 53.5921 151.732 54.1361C151.732 54.6801 151.732 55.3441 151.732 56.1281C151.732 56.8961 151.732 57.8961 151.732 59.1281C151.732 59.4641 151.82 59.8081 151.996 60.1601C152.188 60.5121 152.444 60.8321 152.764 61.1201C153.1 61.4081 153.484 61.6481 153.916 61.8401C154.348 62.0161 154.82 62.1041 155.332 62.1041C155.844 62.1041 156.316 62.0081 156.748 61.8161C157.196 61.6081 157.58 61.3281 157.9 60.9761C158.22 60.6081 158.468 60.1761 158.644 59.6801C158.836 59.1841 158.932 58.6401 158.932 58.0481C158.932 57.4561 158.844 56.9121 158.668 56.4161C158.492 55.9201 158.244 55.4881 157.924 55.1201C157.604 54.7521 157.22 54.4721 156.772 54.2801C156.324 54.0721 155.836 53.9681 155.308 53.9681C154.588 53.9681 153.956 54.1441 153.412 54.4961C152.884 54.8321 152.468 55.3041 152.164 55.9121C151.876 56.5201 151.732 57.2161 151.732 58.0001C151.732 58.9121 151.732 59.6161 151.732 60.1121C151.732 60.6081 151.732 60.9921 151.732 61.2641C151.732 61.5201 151.732 61.7681 151.732 62.0081C151.732 62.2321 151.732 62.5441 151.732 62.9441C151.732 63.3441 151.62 63.6481 151.396 63.8561C151.188 64.0641 150.94 64.1681 150.652 64.1681C150.364 64.1681 150.108 64.0641 149.884 63.8561C149.676 63.6481 149.572 63.3441 149.572 62.9441Z" fill="white"/>
<path d="M131.974 53.0081C131.974 53.3601 131.974 53.6881 131.974 53.9921C131.974 54.2961 131.974 54.6001 131.974 54.9041C131.974 55.2081 131.974 55.5361 131.974 55.8881C131.974 56.0481 131.974 56.3521 131.974 56.8001C131.974 57.2321 131.974 57.7441 131.974 58.3361C131.974 58.9281 131.974 59.5361 131.974 60.1601C131.974 60.7681 131.974 61.3361 131.974 61.8641C131.974 62.3761 131.974 62.7681 131.974 63.0401C131.974 63.3601 131.902 63.6241 131.758 63.8321C131.614 64.0241 131.43 64.1521 131.206 64.2161C130.998 64.2801 130.782 64.2801 130.558 64.2161C130.35 64.1521 130.174 64.0241 130.03 63.8321C129.886 63.6241 129.814 63.3601 129.814 63.0401C129.814 62.7041 129.814 62.3201 129.814 61.8881C129.814 61.4561 129.814 61.0081 129.814 60.5441C129.814 60.0641 129.814 59.5921 129.814 59.1281C129.814 58.6481 129.814 58.2081 129.814 57.8081C129.814 56.9281 129.942 56.1281 130.198 55.4081C130.47 54.6721 130.846 54.0401 131.326 53.5121C131.806 52.9681 132.366 52.5521 133.006 52.2641C133.646 51.9601 134.334 51.8081 135.07 51.8081C135.646 51.8081 136.19 51.9041 136.702 52.0961C137.214 52.2881 137.67 52.5921 138.07 53.0081C138.47 53.4081 138.782 53.9201 139.006 54.5441C139.23 55.1521 139.342 55.8801 139.342 56.7281C139.342 56.8721 139.342 57.1441 139.342 57.5441C139.342 57.9281 139.342 58.3841 139.342 58.9121C139.342 59.4241 139.342 59.9521 139.342 60.4961C139.342 61.0401 139.342 61.5361 139.342 61.9841C139.342 62.4321 139.342 62.7841 139.342 63.0401C139.342 63.3601 139.27 63.6241 139.126 63.8321C138.982 64.0241 138.798 64.1521 138.574 64.2161C138.366 64.2801 138.15 64.2801 137.926 64.2161C137.718 64.1521 137.542 64.0241 137.398 63.8321C137.254 63.6241 137.182 63.3601 137.182 63.0401C137.182 62.7361 137.182 62.3441 137.182 61.8641C137.182 61.3681 137.182 60.8561 137.182 60.3281C137.182 59.7841 137.182 59.2881 137.182 58.8401C137.182 58.3921 137.182 58.0481 137.182 57.8081C137.182 56.9281 137.31 56.1281 137.566 55.4081C137.838 54.6721 138.214 54.0401 138.694 53.5121C139.174 52.9681 139.734 52.5521 140.374 52.2641C141.014 51.9601 141.702 51.8081 142.438 51.8081C143.014 51.8081 143.558 51.9041 144.07 52.0961C144.582 52.2881 145.038 52.5921 145.438 53.0081C145.838 53.4081 146.15 53.9201 146.374 54.5441C146.598 55.1521 146.71 55.8801 146.71 56.7281C146.71 56.9681 146.71 57.2881 146.71 57.6881C146.71 58.0721 146.71 58.4561 146.71 58.8401C146.71 59.2241 146.71 59.5441 146.71 59.8001C146.71 60.1841 146.71 60.5521 146.71 60.9041C146.71 61.2401 146.71 61.5841 146.71 61.9361C146.71 62.2721 146.71 62.6401 146.71 63.0401C146.71 63.4401 146.598 63.7441 146.374 63.9521C146.166 64.1601 145.918 64.2641 145.63 64.2641C145.342 64.2641 145.086 64.1601 144.862 63.9521C144.654 63.7441 144.55 63.4401 144.55 63.0401C144.55 62.7041 144.55 62.3521 144.55 61.9841C144.55 61.6001 144.55 61.2241 144.55 60.8561C144.55 60.4721 144.55 60.1201 144.55 59.8001C144.55 59.2401 144.55 58.7281 144.55 58.2641C144.55 57.7841 144.55 57.2721 144.55 56.7281C144.55 56.0721 144.462 55.5441 144.286 55.1441C144.126 54.7441 143.886 54.4481 143.566 54.2561C143.262 54.0641 142.886 53.9681 142.438 53.9681C141.974 53.9681 141.55 54.0401 141.166 54.1841C140.782 54.3281 140.454 54.5441 140.182 54.8321C139.91 55.1041 139.702 55.4481 139.558 55.8641C139.414 56.2801 139.342 56.7681 139.342 57.3281C139.342 57.6801 139.342 58.1201 139.342 58.6481C139.342 59.1601 139.342 59.7041 139.342 60.2801C139.342 60.8401 139.342 61.3681 139.342 61.8641C139.342 62.3601 139.342 62.7521 139.342 63.0401C139.342 63.3601 139.27 63.6241 139.126 63.8321C138.982 64.0241 138.798 64.1521 138.574 64.2161C138.366 64.2801 138.15 64.2801 137.926 64.2161C137.718 64.1521 137.542 64.0241 137.398 63.8321C137.254 63.6241 137.182 63.3601 137.182 63.0401C137.182 62.7521 137.182 62.3201 137.182 61.7441C137.182 61.1681 137.182 60.5441 137.182 59.8721C137.182 59.2001 137.182 58.5761 137.182 58.0001C137.182 57.4241 137.182 57.0001 137.182 56.7281C137.182 56.0721 137.094 55.5441 136.918 55.1441C136.758 54.7441 136.518 54.4481 136.198 54.2561C135.894 54.0641 135.518 53.9681 135.07 53.9681C134.606 53.9681 134.182 54.0401 133.798 54.1841C133.414 54.3281 133.086 54.5441 132.814 54.8321C132.542 55.1041 132.334 55.4481 132.19 55.8641C132.046 56.2801 131.974 56.7681 131.974 57.3281C131.974 57.6001 131.974 57.9841 131.974 58.4801C131.974 58.9761 131.974 59.5121 131.974 60.0881C131.974 60.6481 131.974 61.1921 131.974 61.7201C131.974 62.2481 131.974 62.6881 131.974 63.0401C131.974 63.3601 131.902 63.6241 131.758 63.8321C131.614 64.0241 131.43 64.1521 131.206 64.2161C130.998 64.2801 130.782 64.2801 130.558 64.2161C130.35 64.1521 130.174 64.0241 130.03 63.8321C129.886 63.6241 129.814 63.3601 129.814 63.0401C129.814 62.7681 129.814 62.3681 129.814 61.8401C129.814 61.3121 129.814 60.7281 129.814 60.0881C129.814 59.4481 129.814 58.8321 129.814 58.2401C129.814 57.6321 129.814 57.1121 129.814 56.6801C129.814 56.2481 129.814 55.9841 129.814 55.8881C129.814 55.5681 129.814 55.2481 129.814 54.9281C129.814 54.6081 129.814 54.2881 129.814 53.9681C129.814 53.6481 129.814 53.3281 129.814 53.0081C129.814 52.6081 129.918 52.3121 130.126 52.1201C130.35 51.9121 130.606 51.8081 130.894 51.8081C131.182 51.8081 131.43 51.9121 131.638 52.1201C131.862 52.3121 131.974 52.6081 131.974 53.0081Z" fill="white"/>
<path d="M118.118 53.0081C118.118 53.5681 118.118 54.1761 118.118 54.8321C118.118 55.4881 118.118 56.1681 118.118 56.8721C118.118 57.5761 118.118 58.2961 118.118 59.0321C118.118 59.7041 118.214 60.2721 118.406 60.7361C118.614 61.1841 118.918 61.5281 119.318 61.7681C119.718 61.9921 120.206 62.1041 120.782 62.1041C121.31 62.1041 121.798 62.0161 122.246 61.8401C122.71 61.6481 123.11 61.3921 123.446 61.0721C123.782 60.7521 124.038 60.3841 124.214 59.9681C124.406 59.5521 124.502 59.1041 124.502 58.6241C124.502 58.4321 124.502 58.1121 124.502 57.6641C124.502 57.2161 124.502 56.7121 124.502 56.1521C124.502 55.5921 124.502 55.0321 124.502 54.4721C124.502 53.9121 124.502 53.4241 124.502 53.0081C124.502 52.6881 124.574 52.4321 124.718 52.2401C124.862 52.0481 125.038 51.9201 125.246 51.8561C125.47 51.7921 125.686 51.7921 125.894 51.8561C126.118 51.9201 126.302 52.0481 126.446 52.2401C126.59 52.4321 126.662 52.6881 126.662 53.0081C126.662 53.4401 126.662 53.9921 126.662 54.6641C126.662 55.3201 126.662 56.0161 126.662 56.7521C126.662 57.4881 126.662 58.1761 126.662 58.8161C126.662 59.4561 126.662 59.9601 126.662 60.3281C126.662 60.7121 126.662 61.0481 126.662 61.3361C126.662 61.6241 126.662 61.9041 126.662 62.1761C126.662 62.4321 126.662 62.7361 126.662 63.0881C126.662 63.4881 126.55 63.7921 126.326 64.0001C126.118 64.1921 125.87 64.2881 125.582 64.2881C125.294 64.2881 125.038 64.1921 124.814 64.0001C124.606 63.7921 124.502 63.4881 124.502 63.0881C124.502 62.7201 124.502 62.3761 124.502 62.0561C124.502 61.7361 124.502 61.4321 124.502 61.1441C124.502 60.8561 124.502 60.5841 124.502 60.3281C124.502 59.7841 124.502 59.1841 124.502 58.5281C124.502 57.8561 124.502 57.1761 124.502 56.4881C124.502 55.8001 124.502 55.1521 124.502 54.5441C124.502 53.9361 124.502 53.4241 124.502 53.0081C124.502 52.6881 124.574 52.4321 124.718 52.2401C124.862 52.0481 125.038 51.9201 125.246 51.8561C125.47 51.7921 125.686 51.7921 125.894 51.8561C126.118 51.9201 126.302 52.0481 126.446 52.2401C126.59 52.4321 126.662 52.6881 126.662 53.0081C126.662 53.4401 126.662 53.9201 126.662 54.4481C126.662 54.9761 126.662 55.5041 126.662 56.0321C126.662 56.5601 126.662 57.0561 126.662 57.5201C126.662 57.9681 126.662 58.3361 126.662 58.6241C126.662 59.3761 126.51 60.0961 126.206 60.7841C125.918 61.4561 125.51 62.0561 124.982 62.5841C124.454 63.0961 123.83 63.5041 123.11 63.8081C122.406 64.1121 121.63 64.2641 120.782 64.2641C119.838 64.2641 118.998 64.0641 118.262 63.6641C117.542 63.2481 116.974 62.6481 116.558 61.8641C116.158 61.0801 115.958 60.1361 115.958 59.0321C115.958 58.4241 115.958 57.7601 115.958 57.0401C115.958 56.3201 115.958 55.6081 115.958 54.9041C115.958 54.1841 115.958 53.5521 115.958 53.0081C115.958 52.6081 116.062 52.3121 116.27 52.1201C116.494 51.9121 116.75 51.8081 117.038 51.8081C117.326 51.8081 117.574 51.9121 117.782 52.1201C118.006 52.3121 118.118 52.6081 118.118 53.0081Z" fill="white"/>
<path d="M111.053 63.04C111.053 62.704 111.053 62.352 111.053 61.984C111.053 61.6 111.053 61.224 111.053 60.856C111.053 60.472 111.053 60.12 111.053 59.8C111.053 59.416 111.053 58.984 111.053 58.504C111.053 58.024 111.053 57.512 111.053 56.968C111.053 56.296 110.941 55.736 110.717 55.288C110.509 54.84 110.197 54.512 109.781 54.304C109.365 54.08 108.853 53.968 108.245 53.968C107.717 53.968 107.237 54.048 106.805 54.208C106.373 54.368 105.997 54.616 105.677 54.952C105.373 55.272 105.133 55.672 104.957 56.152C104.781 56.632 104.693 57.184 104.693 57.808C104.693 58.176 104.693 58.68 104.693 59.32C104.693 59.944 104.693 60.6 104.693 61.288C104.693 61.96 104.693 62.544 104.693 63.04C104.693 63.36 104.621 63.624 104.477 63.832C104.333 64.024 104.149 64.152 103.925 64.216C103.717 64.28 103.501 64.28 103.277 64.216C103.069 64.152 102.893 64.024 102.749 63.832C102.605 63.624 102.533 63.36 102.533 63.04C102.533 62.784 102.533 62.336 102.533 61.696C102.533 61.056 102.533 60.304 102.533 59.44C102.533 58.56 102.533 57.656 102.533 56.728C102.533 55.8 102.533 54.928 102.533 54.112C102.533 53.28 102.533 52.584 102.533 52.024C102.533 51.448 102.533 51.096 102.533 50.968C102.533 50.52 102.533 50.072 102.533 49.624C102.533 49.176 102.533 48.76 102.533 48.376C102.533 47.976 102.533 47.64 102.533 47.368C102.533 46.968 102.637 46.672 102.845 46.48C103.069 46.272 103.325 46.168 103.613 46.168C103.901 46.168 104.149 46.272 104.357 46.48C104.581 46.672 104.693 46.968 104.693 47.368C104.693 47.64 104.693 47.904 104.693 48.16C104.693 48.4 104.693 48.656 104.693 48.928C104.693 49.184 104.693 49.48 104.693 49.816C104.693 50.136 104.693 50.52 104.693 50.968C104.693 51.048 104.693 51.352 104.693 51.88C104.693 52.408 104.693 53.072 104.693 53.872C104.693 54.672 104.693 55.528 104.693 56.44C104.693 57.352 104.693 58.248 104.693 59.128C104.693 60.008 104.693 60.8 104.693 61.504C104.693 62.192 104.693 62.704 104.693 63.04C104.693 63.36 104.621 63.624 104.477 63.832C104.333 64.024 104.149 64.152 103.925 64.216C103.717 64.28 103.501 64.28 103.277 64.216C103.069 64.152 102.893 64.024 102.749 63.832C102.605 63.624 102.533 63.36 102.533 63.04C102.533 62.672 102.533 62.288 102.533 61.888C102.533 61.472 102.533 61.048 102.533 60.616C102.533 60.184 102.533 59.752 102.533 59.32C102.533 58.872 102.533 58.448 102.533 58.048C102.533 57.232 102.677 56.448 102.965 55.696C103.269 54.944 103.685 54.28 104.213 53.704C104.757 53.112 105.381 52.648 106.085 52.312C106.805 51.976 107.581 51.808 108.413 51.808C109.101 51.808 109.733 51.92 110.309 52.144C110.901 52.368 111.413 52.704 111.845 53.152C112.277 53.584 112.613 54.12 112.853 54.76C113.093 55.4 113.213 56.136 113.213 56.968C113.213 57.336 113.213 57.76 113.213 58.24C113.213 58.72 113.213 59.24 113.213 59.8C113.213 60.184 113.213 60.552 113.213 60.904C113.213 61.24 113.213 61.584 113.213 61.936C113.213 62.272 113.213 62.64 113.213 63.04C113.213 63.44 113.101 63.744 112.877 63.952C112.669 64.16 112.421 64.264 112.133 64.264C111.845 64.264 111.589 64.16 111.365 63.952C111.157 63.744 111.053 63.44 111.053 63.04Z" fill="white"/>
<path d="M99.3825 49.8399C99.1425 49.8399 98.7505 49.8399 98.2065 49.8399C97.6785 49.8399 97.0625 49.8399 96.3585 49.8399C95.6705 49.8399 94.9745 49.8399 94.2705 49.8399C93.5825 49.8399 92.9425 49.8399 92.3505 49.8399C91.7745 49.8399 91.3345 49.8399 91.0305 49.8399C90.7105 49.8399 90.4465 49.7679 90.2385 49.6239C90.0465 49.4799 89.9185 49.3039 89.8545 49.0959C89.7905 48.8719 89.7905 48.6559 89.8545 48.4479C89.9185 48.2239 90.0465 48.0399 90.2385 47.8959C90.4465 47.7519 90.7105 47.6799 91.0305 47.6799C91.5265 47.6799 92.0225 47.7279 92.5185 47.8239C93.0305 47.9039 93.5105 48.0479 93.9585 48.2559C94.4065 48.4479 94.8065 48.7039 95.1585 49.0239C95.5105 49.3439 95.7825 49.7279 95.9745 50.1759C96.1825 50.6239 96.2865 51.1519 96.2865 51.7599C96.2865 52.3999 96.2865 53.1039 96.2865 53.8719C96.2865 54.6239 96.2865 55.3679 96.2865 56.1039C96.2865 56.8239 96.2865 57.4799 96.2865 58.0719C96.2865 58.6639 96.2865 59.1119 96.2865 59.4159C96.2865 59.7999 96.2865 60.2079 96.2865 60.6399C96.2865 61.0719 96.2865 61.4959 96.2865 61.9119C96.2865 62.3119 96.2865 62.6879 96.2865 63.0399C96.2865 63.4399 96.1745 63.7439 95.9505 63.9519C95.7425 64.1599 95.4945 64.2639 95.2065 64.2639C94.9185 64.2639 94.6625 64.1599 94.4385 63.9519C94.2305 63.7439 94.1265 63.4399 94.1265 63.0399C94.1265 62.6879 94.1265 62.3119 94.1265 61.9119C94.1265 61.4959 94.1265 61.0719 94.1265 60.6399C94.1265 60.2079 94.1265 59.7999 94.1265 59.4159C94.1265 59.1119 94.1265 58.6479 94.1265 58.0239C94.1265 57.3839 94.1265 56.6799 94.1265 55.9119C94.1265 55.1279 94.1265 54.3679 94.1265 53.6319C94.1265 52.8959 94.1265 52.2719 94.1265 51.7599C94.1265 51.2639 94.0385 50.8879 93.8625 50.6319C93.6865 50.3599 93.4465 50.1679 93.1425 50.0559C92.8545 49.9439 92.5265 49.8799 92.1585 49.8639C91.7905 49.8479 91.4145 49.8399 91.0305 49.8399C90.7105 49.8399 90.4465 49.7679 90.2385 49.6239C90.0465 49.4799 89.9185 49.3039 89.8545 49.0959C89.7905 48.8719 89.7905 48.6559 89.8545 48.4479C89.9185 48.2239 90.0465 48.0399 90.2385 47.8959C90.4465 47.7519 90.7105 47.6799 91.0305 47.6799C91.5265 47.6799 92.1025 47.6799 92.7585 47.6799C93.4305 47.6799 94.1105 47.6799 94.7985 47.6799C95.5025 47.6799 96.1745 47.6799 96.8145 47.6799C97.4545 47.6799 97.9985 47.6799 98.4465 47.6799C98.9105 47.6799 99.2225 47.6799 99.3825 47.6799C99.7985 47.6799 100.102 47.7919 100.294 48.0159C100.502 48.2239 100.606 48.4719 100.606 48.7599C100.606 49.0479 100.502 49.3039 100.294 49.5279C100.102 49.7359 99.7985 49.8399 99.3825 49.8399Z" fill="white"/>
</svg>
