<svg width="16" height="16" viewBox="0 0 16 16" fill="none" xmlns="http://www.w3.org/2000/svg">
<path d="M8 3.25C6.50966 3.25 5.25 4.27821 5.25 5.60729C5.25 6.05329 5.6681 6.33825 6.08 6.33825C6.4919 6.33825 6.91 6.05329 6.91 5.60729C6.91 5.14111 7.36821 4.71192 8 4.71192C8.63178 4.71192 9.09 5.14112 9.09 5.60729C9.09 6.1016 8.83511 6.37728 8.38396 6.75943C8.34807 6.78983 8.31028 6.82122 8.26978 6.85486L8.24086 6.87887C7.83187 7.21826 7.17 7.76751 7.17 8.64781V9.01883C7.17 9.46462 7.58784 9.75 8 9.75C8.4119 9.75 8.83 9.46504 8.83 9.01904V8.64781C8.83 8.54392 8.86008 8.46058 8.95135 8.34916C9.05324 8.22478 9.21371 8.08637 9.46515 7.87383L9.53604 7.81387C10.0448 7.38295 10.75 6.73938 10.75 5.60729C10.75 4.27823 9.49034 3.25 8 3.25Z" fill="#1C398E"/>
<path d="M8 10.75C7.44772 10.75 7 11.1977 7 11.75C7 12.3023 7.44772 12.75 8 12.75C8.55228 12.75 9 12.3023 9 11.75C9 11.1977 8.55229 10.75 8 10.75Z" fill="#1C398E"/>
<path fill-rule="evenodd" clip-rule="evenodd" d="M0 8C0 3.58172 3.58172 0 8 0C12.4183 0 16 3.58172 16 8C16 12.4183 12.4183 16 8 16C3.58172 16 0 12.4183 0 8ZM8 1.55203C4.43888 1.55203 1.55203 4.43888 1.55203 8C1.55203 11.5611 4.43888 14.448 8 14.448C11.5611 14.448 14.448 11.5611 14.448 8C14.448 4.43888 11.5611 1.55203 8 1.55203Z" fill="#1C398E"/>
</svg>
