<svg width="89" height="89" viewBox="0 0 89 89" fill="none" xmlns="http://www.w3.org/2000/svg">
<path d="M44.084 0C20.846 0 1.809 17.918 0 40.689L23.71 50.492C25.719 49.118 28.146 48.313 30.757 48.313C30.991 48.313 31.224 48.321 31.455 48.334L41.999 33.051C41.999 32.978 41.998 32.907 41.998 32.835C41.998 23.636 49.481 16.152 58.681 16.152C67.88 16.152 75.363 23.636 75.363 32.835C75.363 42.034 67.88 49.519 58.681 49.519C58.554 49.519 58.428 49.516 58.302 49.513L43.264 60.243C43.272 60.438 43.279 60.637 43.279 60.835C43.279 67.741 37.662 73.357 30.757 73.357C24.696 73.357 19.628 69.031 18.48 63.302L1.524 56.292C6.774 74.86 23.833 88.473 44.084 88.473C68.516 88.473 88.321 68.667 88.321 44.238C88.321 19.805 68.515 0 44.084 0Z" fill="#1C398E"/>
<path d="M27.721 67.1219L22.287 64.8769C23.25 66.8819 24.916 68.5609 27.128 69.4829C31.91 71.4749 37.423 69.2059 39.416 64.4199C40.381 62.1059 40.387 59.5509 39.43 57.2309C38.475 54.9099 36.673 53.0999 34.356 52.1339C32.057 51.1769 29.594 51.2119 27.43 52.0289L33.043 54.3499C36.57 55.8199 38.238 59.8699 36.768 63.3969C35.301 66.9249 31.248 68.5929 27.721 67.1219Z" fill="#1C398E"/>
<path d="M69.796 32.835C69.796 26.706 64.81 21.719 58.68 21.719C52.551 21.719 47.564 26.706 47.564 32.835C47.564 38.965 52.551 43.95 58.68 43.95C64.81 43.949 69.796 38.964 69.796 32.835ZM50.348 32.816C50.348 28.204 54.087 24.466 58.699 24.466C63.311 24.466 67.05 28.204 67.05 32.816C67.05 37.428 63.311 41.166 58.699 41.166C54.087 41.166 50.348 37.427 50.348 32.816Z" fill="#1C398E"/>
</svg>
