<svg width="16" height="16" viewBox="0 0 16 16" fill="none" xmlns="http://www.w3.org/2000/svg">
<path d="M14.1025 1.8975C13.5725 1.3675 12.7132 1.3675 12.1832 1.8975L8.00001 6.08071L3.81679 1.8975C3.28679 1.3675 2.4275 1.3675 1.8975 1.8975C1.36751 2.4275 1.36751 3.28679 1.8975 3.81679L6.08072 8L1.8975 12.1832C1.3675 12.7132 1.3675 13.5725 1.8975 14.1025C2.42749 14.6325 3.28679 14.6325 3.81679 14.1025L8 9.91929L12.1832 14.1025C12.7132 14.6325 13.5725 14.6325 14.1025 14.1025C14.6325 13.5725 14.6325 12.7132 14.1025 12.1832L9.91929 8L14.1025 3.81679C14.6325 3.28679 14.6325 2.42749 14.1025 1.8975Z" fill="#dc143c"/>
</svg>
